<svg width="100" height="100" viewBox="0 0 100 100" fill="none" xmlns="http://www.w3.org/2000/svg">
<path d="M90.6254 86.2063L67.0254 62.6063C72.6966 55.7979 75.5247 47.0652 74.9212 38.2248C74.3178 29.3843 70.3293 21.1169 63.7855 15.1423C57.2418 9.16768 48.6465 5.94591 39.7878 6.1472C30.9291 6.34849 22.489 9.95733 16.2234 16.223C9.9577 22.4887 6.34885 30.9287 6.14757 39.7874C5.94628 48.6461 9.16805 57.2414 15.1427 63.7852C21.1173 70.329 29.3847 74.3174 38.2251 74.9209C47.0655 75.5243 55.7983 72.6963 62.6067 67.0251L86.2067 90.6251L90.6254 86.2063ZM12.5004 40.6251C12.5004 35.0625 14.1499 29.6248 17.2403 24.9996C20.3308 20.3745 24.7233 16.7697 29.8625 14.6409C35.0016 12.5122 40.6566 11.9553 46.1123 13.0405C51.5681 14.1257 56.5794 16.8043 60.5128 20.7377C64.4462 24.671 67.1248 29.6824 68.21 35.1381C69.2952 40.5939 68.7383 46.2489 66.6095 51.388C64.4808 56.5272 60.876 60.9197 56.2508 64.0101C51.6257 67.1006 46.188 68.7501 40.6254 68.7501C33.1687 68.7418 26.0198 65.776 20.7472 60.5033C15.4745 55.2306 12.5087 48.0817 12.5004 40.6251Z" fill="black"/>
</svg>
