<svg width="100" height="100" viewBox="0 0 100 100" fill="none" xmlns="http://www.w3.org/2000/svg">
<path d="M92.6952 38.2422C92.3726 37.2177 91.7508 36.3131 90.9099 35.6448C90.069 34.9765 89.0474 34.5751 87.9765 34.4922L64.7499 32.4844C64.6094 32.4706 64.4753 32.419 64.3619 32.3351C64.2484 32.2512 64.1597 32.1381 64.1054 32.0078L55.0311 10.3828C54.6109 9.39632 53.9099 8.55512 53.0154 7.96386C52.1208 7.37261 51.0722 7.05737 49.9999 7.05737C48.9276 7.05737 47.879 7.37261 46.9844 7.96386C46.0899 8.55512 45.3889 9.39632 44.9686 10.3828L35.8944 32.0078C35.8401 32.1381 35.7514 32.2512 35.6379 32.3351C35.5245 32.419 35.3904 32.4706 35.2499 32.4844L12.0233 34.4922C10.9524 34.5751 9.93079 34.9765 9.08988 35.6448C8.24896 36.3131 7.6272 37.2177 7.30458 38.2422C6.9629 39.2682 6.93306 40.3724 7.21882 41.4153C7.50458 42.4583 8.09312 43.3931 8.91005 44.1016L26.5311 59.4727C26.639 59.5685 26.7192 59.6916 26.7632 59.829C26.8071 59.9665 26.8134 60.1132 26.7811 60.2539L21.4843 83.1094C21.2374 84.1617 21.3078 85.2635 21.6867 86.2758C22.0656 87.2881 22.736 88.1654 23.6132 88.7969C24.4768 89.434 25.5115 89.7977 26.5838 89.8409C27.6562 89.884 28.7168 89.6048 29.6288 89.0391L49.5936 76.9297C49.711 76.8571 49.8463 76.8186 49.9843 76.8186C50.1223 76.8186 50.2576 76.8571 50.3749 76.9297L70.3397 89.0391C71.2612 89.6032 72.3292 89.8818 73.4088 89.8396C74.4884 89.7974 75.5314 89.4363 76.406 88.802C77.2807 88.1676 77.9478 87.2884 78.3232 86.2753C78.6987 85.2622 78.7656 84.1605 78.5155 83.1094L73.2343 60.2461C73.2021 60.1054 73.2083 59.9587 73.2523 59.8212C73.2962 59.6838 73.3764 59.5607 73.4843 59.4649L91.1054 44.0938C91.9181 43.384 92.5027 42.4497 92.7856 41.4085C93.0685 40.3673 93.037 39.2656 92.6952 38.2422ZM88.0077 40.5547L70.3866 55.9258C69.6358 56.5791 69.0775 57.4249 68.7719 58.3721C68.4662 59.3192 68.4249 60.3318 68.6522 61.3008L73.9335 84.1641C73.9725 84.3177 73.9639 84.4795 73.9088 84.6282C73.8537 84.7768 73.7547 84.9051 73.6249 84.9961C73.5074 85.0901 73.363 85.1443 73.2127 85.1506C73.0623 85.1569 72.9139 85.1151 72.789 85.0313L52.8241 72.9219C51.9729 72.4045 50.996 72.1309 49.9999 72.1309C49.0038 72.1309 48.0269 72.4045 47.1757 72.9219L27.2108 85.0313C27.0859 85.1151 26.9374 85.1569 26.7871 85.1506C26.6368 85.1443 26.4924 85.0901 26.3749 84.9961C26.2451 84.9051 26.1461 84.7768 26.091 84.6282C26.0359 84.4795 26.0273 84.3177 26.0663 84.1641L31.3476 61.3008C31.5749 60.3318 31.5336 59.3192 31.2279 58.3721C30.9223 57.4249 30.364 56.5791 29.6132 55.9258L11.9921 40.5547C11.8716 40.4522 11.785 40.3155 11.7439 40.1628C11.7027 40.01 11.7089 39.8484 11.7616 39.6992C11.8011 39.5507 11.8866 39.4185 12.0059 39.3216C12.1252 39.2248 12.2722 39.1682 12.4257 39.1602L35.6561 37.1524C36.6507 37.0676 37.603 36.7123 38.41 36.125C39.217 35.5376 39.8479 34.7406 40.2343 33.8203L49.3085 12.1953C49.3716 12.0611 49.4716 11.9476 49.5968 11.8681C49.722 11.7886 49.8672 11.7464 50.0155 11.7464C50.1638 11.7464 50.3091 11.7886 50.4343 11.8681C50.5595 11.9476 50.6595 12.0611 50.7226 12.1953L59.7655 33.8203C60.1507 34.7384 60.7791 35.534 61.5832 36.1211C62.3872 36.7083 63.3363 37.0649 64.328 37.1524L87.5585 39.1602C87.712 39.1682 87.8589 39.2248 87.9783 39.3216C88.0976 39.4185 88.1831 39.5507 88.2226 39.6992C88.2771 39.8469 88.2857 40.0075 88.2474 40.1602C88.2091 40.3128 88.1255 40.4503 88.0077 40.5547Z" fill="black"/>
</svg>
