<svg width="100" height="100" viewBox="0 0 100 100" fill="none" xmlns="http://www.w3.org/2000/svg">
<path d="M91.6016 44.6796L73.9845 60.0546L79.2618 82.9453C79.5411 84.1419 79.4614 85.3943 79.0327 86.546C78.604 87.6976 77.8454 88.6973 76.8517 89.4201C75.8579 90.1429 74.6732 90.5567 73.4455 90.6098C72.2178 90.6629 71.0018 90.353 69.9493 89.7187L49.9845 77.6093L30.0626 89.7187C29.0101 90.353 27.794 90.6629 26.5664 90.6098C25.3387 90.5567 24.154 90.1429 23.1602 89.4201C22.1665 88.6973 21.4078 87.6976 20.9792 86.546C20.5505 85.3943 20.4708 84.1419 20.7501 82.9453L26.0196 60.0781L8.39852 44.6796C7.46653 43.8758 6.7926 42.8147 6.46124 41.6294C6.12989 40.4441 6.15587 39.1874 6.53591 38.0168C6.91596 36.8462 7.63316 35.8139 8.59758 35.0492C9.562 34.2846 10.7307 33.8218 11.9571 33.7187L35.1837 31.707L44.2501 10.082C44.7235 8.94728 45.5222 7.97803 46.5453 7.29627C47.5685 6.61451 48.7706 6.25073 50.0001 6.25073C51.2296 6.25073 52.4316 6.61451 53.4548 7.29627C54.478 7.97803 55.2766 8.94728 55.7501 10.082L64.8438 31.707L88.0626 33.7187C89.289 33.8218 90.4577 34.2846 91.4221 35.0492C92.3865 35.8139 93.1037 36.8462 93.4838 38.0168C93.8638 39.1874 93.8898 40.4441 93.5585 41.6294C93.2271 42.8147 92.5532 43.8758 91.6212 44.6796H91.6016Z" fill="#FFD233"/>
</svg>
